<?xml version="1.0" encoding="UTF-8"?>
<!DOCTYPE svg PUBLIC "-//W3C//DTD SVG 1.1//EN" "http://www.w3.org/Graphics/SVG/1.1/DTD/svg11.dtd">
<!-- Creator: CorelDRAW X7 -->
<svg xmlns="http://www.w3.org/2000/svg" xml:space="preserve" width="81.994mm" height="111.507mm" version="1.1" style="shape-rendering:geometricPrecision; text-rendering:geometricPrecision; image-rendering:optimizeQuality; fill-rule:evenodd; clip-rule:evenodd"
viewBox="0 0 8199 11151"
 xmlns:xlink="http://www.w3.org/1999/xlink">
 <defs>
  <style type="text/css">
   <![CDATA[
    .fil0 {fill:#FFC800}
    .fil1 {fill:#FFD400}
    .fil2 {fill:#FFDA00}
    .fil4 {fill:#FFE600}
    .fil3 {fill:#FFF200}
   ]]>
  </style>
 </defs>
 <g id="Layer_x0020_1">
  <metadata id="CorelCorpID_0Corel-Layer"/>
  <g id="_1849677112032">
   <path class="fil0" d="M171 4152c688,-784 1442,-1351 2135,-1830l-45 -36c-115,-92 -231,-221 -328,-332 -127,-145 -253,-338 -344,-521 -96,-194 -177,-399 -231,-635 -61,-269 -67,-472 -67,-798 -219,146 -537,603 -696,845 -314,477 -595,1328 -595,2015 0,495 34,843 171,1292z"/>
   <path class="fil1" d="M565 5053c939,-1146 2050,-1882 3415,-2087 -649,-39 -1092,-186 -1674,-644 -867,304 -1579,914 -2135,1830l40 125c108,326 174,442 322,720l32 56z"/>
   <path class="fil2" d="M4104 4563c1231,-443 2378,-181 3440,675l125 -200c-99,-177 -211,-347 -338,-502l-196 -230c-40,-52 -61,-70 -105,-115 -145,-144 -299,-280 -463,-403 -586,-437 -1443,-802 -2226,-810 -128,-1 -247,-5 -361,-12 -1461,61 -2600,756 -3415,2087l34 54c26,41 49,62 61,115 75,-6 15,10 106,-85 549,-566 1244,-883 2094,-883 417,0 862,116 1244,309z"/>
   <path class="fil3" d="M7544 5238c-1062,-1039 -2209,-1265 -3440,-675 191,96 366,211 513,339 339,296 554,553 757,975 140,292 222,602 250,914 852,-143 1487,-673 1920,-1553z"/>
   <path class="fil4" d="M4114 9549c240,416 763,474 1339,330 2073,-742 2719,-2790 2262,-4757 -15,-28 -30,-56 -46,-84l-125 200c-490,744 -1130,1262 -1920,1553 53,602 -94,1217 -412,1750 -85,143 -169,234 -263,354 -117,151 -328,327 -484,440 -111,81 -229,152 -351,214z"/>
   <path class="fil1" d="M5453 9879c-422,41 -868,-68 -1339,-330 -815,416 -1831,420 -2635,-17 0,0 192,377 789,597 596,220 1357,238 1709,239 352,2 806,-204 1476,-489z"/>
   <path class="fil0" d="M5453 9879c-670,285 -1117,367 -1469,366 -352,-2 -976,15 -1572,-205 -597,-220 -933,-508 -933,-508 -102,-55 -199,-117 -293,-186l-259 -197c-236,-221 -537,-575 -701,-853 -29,-49 -24,-67 -65,-97 5,51 29,114 46,160l55 150c374,1045 1273,1933 2303,2347 784,316 1699,384 2540,174 274,-68 487,-149 723,-259 166,-77 233,-103 394,-207l82 -50c625,-400 1213,-1037 1514,-1713 304,-685 381,-1096 381,-1907 0,-428 -134,-1012 -308,-1408 -54,-123 -112,-245 -176,-364 343,1896 -321,3931 -2262,4757z"/>
  </g>
 </g>
</svg>
