<?xml version="1.0" encoding="UTF-8"?>
<!DOCTYPE svg PUBLIC "-//W3C//DTD SVG 1.1//EN" "http://www.w3.org/Graphics/SVG/1.1/DTD/svg11.dtd">
<!-- Creator: CorelDRAW X7 -->
<svg xmlns="http://www.w3.org/2000/svg" xml:space="preserve" width="108.729mm" height="146.832mm" version="1.1" style="shape-rendering:geometricPrecision; text-rendering:geometricPrecision; image-rendering:optimizeQuality; fill-rule:evenodd; clip-rule:evenodd"
viewBox="0 0 10873 14683"
 xmlns:xlink="http://www.w3.org/1999/xlink">
 <defs>
  <style type="text/css">
   <![CDATA[
    .fil1 {fill:#FFC800}
    .fil0 {fill:#FFCC00}
    .fil2 {fill:#FFD400}
    .fil3 {fill:#FFDA00}
    .fil5 {fill:#FFE600}
    .fil4 {fill:#FFF200}
   ]]>
  </style>
 </defs>
 <g id="Layer_x0020_1">
  <metadata id="CorelCorpID_0Corel-Layer"/>
  <g id="_1849676196576">
   <g>
    <path class="fil0" d="M1 12591c0,347 144,559 430,707 502,260 1305,163 1305,522 0,280 -357,307 -568,307 -148,0 -352,-70 -467,-116 -78,-31 -126,-57 -198,-94 -240,-120 -186,-172 -370,81 -117,160 -199,232 -60,334 122,88 240,158 384,214 653,256 1894,224 1894,-711 0,-338 -117,-570 -410,-727 -76,-40 -177,-72 -272,-96l-589 -133c-243,-47 -464,-89 -464,-303 0,-172 290,-246 476,-246 409,0 681,246 767,246 89,0 112,-72 191,-178 152,-202 278,-281 -265,-500 -436,-175 -1072,-180 -1468,88 -179,122 -316,312 -316,605z"/>
    <path class="fil0" d="M9737 12991c288,0 522,172 522,399l-1045 0c34,-144 72,-204 173,-288 75,-60 217,-111 350,-111zm-31 1689c364,0 579,-45 862,-274 299,-241 96,-270 -113,-399 -277,-172 -147,166 -718,166 -114,0 -266,-57 -344,-102 -122,-70 -137,-147 -194,-266l1382 0c305,1 292,-66 292,-308 0,-233 -65,-403 -184,-568 -192,-265 -516,-445 -845,-445 -265,0 -343,-3 -590,101 -138,57 -231,129 -327,225 -154,153 -239,318 -282,532 -9,43 -31,199 -30,247 11,450 223,806 641,988 115,50 292,103 450,103z"/>
    <path class="fil0" d="M6220 14680c299,0 484,-7 734,-172 72,-47 144,-106 198,-170 257,-303 124,-304 -81,-386 -361,-146 -223,14 -456,140 -404,218 -873,-34 -885,-503 -2,-67 27,-192 47,-243 24,-63 63,-134 109,-183 242,-256 676,-208 850,18 23,30 75,102 114,102 38,0 353,-124 392,-146 130,-73 11,-202 -96,-319 -68,-74 -233,-180 -327,-227 -210,-104 -346,-107 -583,-107 -565,0 -1071,496 -1088,1092 -1,38 19,186 29,228 14,65 42,146 70,206 177,364 556,670 973,670z"/>
    <path class="fil0" d="M7679 11808l0 2734c0,128 293,92 430,92 110,0 153,-44 153,-154l0 -2626c0,-178 -241,-138 -430,-138 -69,0 -153,29 -153,92z"/>
    <path class="fil0" d="M4316 12776c0,-313 24,-261 -491,-261 -50,0 -92,66 -92,123l0 1842c0,200 165,154 460,154 108,0 125,-72 124,-184 -2,-237 -13,-772 19,-948 45,-249 275,-413 504,-448 237,-35 198,-10 198,-463 0,-254 -517,-4 -603,73 -45,41 -70,79 -119,112z"/>
    <path class="fil0" d="M2673 12638l0 1873c0,167 232,123 461,123 56,0 123,-43 123,-92l0 -1935c0,-135 -284,-92 -461,-92 -74,0 -123,48 -123,123z"/>
    <path class="fil0" d="M2642 11977c0,428 645,428 645,0 0,-408 -645,-396 -645,0z"/>
   </g>
   <g>
    <path class="fil1" d="M1508 4152c688,-784 1442,-1351 2135,-1830l-45 -36c-115,-92 -231,-221 -328,-332 -127,-145 -253,-338 -344,-521 -96,-194 -177,-399 -231,-635 -61,-269 -67,-472 -67,-798 -219,146 -537,603 -696,845 -315,477 -595,1328 -595,2015 0,495 34,843 171,1292z"/>
    <path class="fil2" d="M1901 5053c940,-1146 2051,-1882 3416,-2087 -649,-39 -1092,-186 -1674,-644 -868,304 -1579,914 -2135,1830l40 125c108,326 174,442 322,720l31 56z"/>
    <path class="fil3" d="M5441 4563c1231,-443 2377,-181 3440,675l125 -200c-100,-177 -212,-347 -339,-502l-195 -230c-41,-52 -61,-70 -106,-115 -145,-144 -298,-280 -462,-403 -586,-437 -1443,-802 -2226,-810 -128,-1 -248,-5 -361,-12 -1461,60 -2600,756 -3416,2087l34 54c27,41 50,62 62,115 74,-6 14,10 106,-85 549,-566 1244,-883 2094,-883 416,0 862,116 1244,309z"/>
    <path class="fil4" d="M8881 5238c-1063,-1039 -2209,-1265 -3440,-675 191,96 365,211 513,339 339,296 554,553 756,975 141,292 223,602 251,914 852,-143 1487,-673 1920,-1553z"/>
    <path class="fil5" d="M5450 9549c240,416 764,474 1340,330 2073,-742 2719,-2790 2262,-4757 -15,-28 -30,-56 -46,-84l-125 200c-490,744 -1130,1262 -1920,1553 53,602 -95,1217 -412,1750 -85,143 -169,234 -263,354 -118,151 -328,327 -484,440 -112,81 -229,152 -352,214z"/>
    <path class="fil2" d="M6790 9879c-422,41 -868,-68 -1340,-330 -815,416 -1830,420 -2635,-17 0,0 193,377 789,597 597,220 1358,238 1710,239 351,2 806,-204 1476,-489z"/>
    <path class="fil1" d="M6790 9879c-670,285 -1118,367 -1469,366 -352,-2 -976,15 -1572,-205 -597,-220 -934,-508 -934,-508 -101,-55 -199,-117 -292,-186l-259 -197c-237,-221 -538,-576 -701,-853 -29,-49 -24,-67 -65,-97 4,51 29,114 46,160l55 150c373,1045 1273,1933 2302,2347 785,316 1700,384 2540,174 274,-68 488,-149 724,-259 166,-77 233,-103 394,-207l82 -50c624,-400 1213,-1037 1514,-1714 304,-684 381,-1095 381,-1906 0,-428 -134,-1012 -308,-1408 -54,-123 -112,-245 -176,-364 343,1896 -322,3931 -2262,4757z"/>
   </g>
  </g>
 </g>
</svg>
